<svg width="263" height="325" viewBox="0 0 263 325" fill="none" xmlns="http://www.w3.org/2000/svg">
<rect opacity="0.7" x="0.970215" y="50.2216" width="169.189" height="339.449" rx="32.1245" transform="rotate(-17.1923 0.970215 50.2216)" fill="black"/>
<g clip-path="url(#clip0_1_8349)">
<rect x="7.66748" y="53.7539" width="158.481" height="328.741" rx="26.7704" transform="rotate(-17.1923 7.66748 53.7539)" fill="white"/>
<g clip-path="url(#clip1_1_8349)">
<rect x="39.4199" y="120.151" width="137.065" height="113.507" rx="21.4163" transform="rotate(-17.1923 39.4199 120.151)" fill="#F9F9F9"/>
<path opacity="0.7" d="M69.7822 203.791L90.2417 197.461" stroke="#2FDBBC" stroke-width="128.498" stroke-linecap="round"/>
<circle cx="69.3754" cy="179.608" r="2.67704" transform="rotate(7.33967 69.3754 179.608)" fill="black"/>
<circle cx="92.2252" cy="178.232" r="2.67704" transform="rotate(7.33967 92.2252 178.232)" fill="black"/>
<path d="M82.7639 203.242C85.5686 204.418 91.3127 202.734 87.3677 197.23C96.0629 194.539 87.2348 187.743 82.0247 191.52" stroke="black" stroke-width="2.14163" stroke-linecap="round" stroke-linejoin="round"/>
<path d="M145.824 196.703C149.443 196.158 151.924 194.863 153.246 193.402M144.134 187.677C153.285 185.926 156.24 190.092 153.246 193.402M122.709 216.314C136.489 231.934 136.752 196.998 136.503 189.321C136.254 181.645 135.103 167.711 141.406 168.205C146.449 168.601 144.981 176.472 143.953 182.094C144.981 176.472 147.383 167.295 151.199 168.586C156.849 170.499 153.167 179.004 150.969 183.034M147.532 184.772C150.496 182.813 157.72 180.11 160.116 185.062C161.433 187.784 160.15 189.819 158.22 191.217M153.246 193.402C154.622 193.083 156.638 192.364 158.22 191.217M158.22 191.217C160.723 203.775 159.943 222.79 153.305 233.484C146.666 244.178 134.669 247.594 131.405 247.467" stroke="black" stroke-width="2.14163" stroke-linecap="round" stroke-linejoin="round"/>
<circle cx="146.996" cy="141.79" r="5.35409" transform="rotate(-17.1923 146.996 141.79)" stroke="black" stroke-width="2.14163"/>
<circle cx="180.268" cy="122.529" r="5.35409" transform="rotate(-17.1923 180.268 122.529)" stroke="black" stroke-width="2.14163"/>
<path d="M152.148 138.515L174.958 125.293M145.256 136.164L139.779 107.594" stroke="black" stroke-width="2.14163" stroke-linecap="round" stroke-linejoin="round"/>
<path d="M131.51 106.23L148.596 107.108" stroke="black" stroke-width="2.14163" stroke-linecap="round" stroke-linejoin="round"/>
</g>
<g clip-path="url(#clip2_1_8349)">
<rect x="30.2412" y="90.4847" width="25.6996" height="25.6996" rx="12.8498" transform="rotate(-17.1923 30.2412 90.4847)" fill="#DAFAF4"/>
<rect opacity="0.7" x="34.0393" y="102.76" width="25.6996" height="19.2747" rx="9.63735" transform="rotate(-17.1923 34.0393 102.76)" fill="#2FDBBC"/>
<circle cx="45.815" cy="106.403" r="0.535409" transform="rotate(-17.1923 45.815 106.403)" fill="black"/>
<circle cx="50.93" cy="104.82" r="0.535409" transform="rotate(-17.1923 50.93 104.82)" fill="black"/>
</g>
<g clip-path="url(#clip3_1_8349)">
<rect x="90.3782" y="284.849" width="25.6996" height="25.6996" rx="12.8498" transform="rotate(-17.1923 90.3782 284.849)" fill="#FFF5EB"/>
<rect opacity="0.7" x="94.1763" y="297.125" width="25.6996" height="19.2747" rx="9.63735" transform="rotate(-17.1923 94.1763 297.125)" fill="#FDC280"/>
<circle cx="105.952" cy="300.767" r="0.535409" transform="rotate(-17.1923 105.952 300.767)" fill="black"/>
<circle cx="111.067" cy="299.185" r="0.535409" transform="rotate(-17.1923 111.067 299.185)" fill="black"/>
<circle cx="105.952" cy="300.767" r="1.39206" transform="rotate(-17.1923 105.952 300.767)" stroke="black" stroke-width="0.428327"/>
<circle cx="111.067" cy="299.185" r="1.39206" transform="rotate(-17.1923 111.067 299.185)" stroke="black" stroke-width="0.428327"/>
<path d="M107.486 300.293L109.532 299.66" stroke="black" stroke-width="0.428327" stroke-linecap="round" stroke-linejoin="round"/>
</g>
<path d="M66.6912 96.9279L66.3798 95.9213L68.9577 95.1237C69.4487 94.9718 69.789 94.7095 69.9786 94.337C70.1657 93.9563 70.196 93.5614 70.0694 93.1522C69.9833 92.8739 69.8447 92.6433 69.6535 92.4603C69.4599 92.2692 69.2241 92.1448 68.9463 92.0873C68.6766 92.0273 68.3863 92.0454 68.0753 92.1416L65.4606 92.9506L65.1492 91.944L67.592 91.1882C68.0012 91.0615 68.2916 90.8551 68.463 90.5689C68.6402 90.272 68.6655 89.919 68.5389 89.5098C68.4123 89.1006 68.1892 88.8288 67.8697 88.6946C67.5476 88.5521 67.1779 88.5454 66.7605 88.6746L64.3668 89.4152L64.0553 88.4086L66.4736 87.6604C67.0301 87.4882 67.5241 87.4474 67.9557 87.5381C68.3929 87.618 68.7563 87.7925 69.0458 88.0616C69.3435 88.3282 69.5531 88.6579 69.6747 89.0507C69.8165 89.509 69.8137 89.9493 69.6663 90.3715C69.5272 90.7912 69.2466 91.1739 68.8245 91.5197L68.8087 91.1211C69.4178 91.1478 69.9358 91.3149 70.3627 91.6222C70.7952 91.9188 71.095 92.3372 71.2621 92.8773C71.4014 93.3274 71.4163 93.7667 71.3067 94.1951C71.1972 94.6236 70.9679 95.0128 70.6189 95.3629C70.2755 95.7023 69.8051 95.9644 69.2077 96.1493L66.6912 96.9279ZM65.9178 97.1672L63.2819 88.6479L64.4359 88.2909L67.0718 96.8102L65.9178 97.1672ZM75.7524 94.2589C75.2777 94.4057 74.8152 94.4323 74.3647 94.3385C73.9199 94.234 73.5316 94.0224 73.1998 93.7036C72.868 93.3848 72.6236 92.9717 72.4666 92.4643L71.4183 89.0762L72.5231 88.7343L73.5562 92.0733C73.655 92.3925 73.7943 92.6543 73.9741 92.8587C74.1596 93.0524 74.3777 93.1777 74.6284 93.2346C74.8792 93.2915 75.1478 93.2757 75.4342 93.1871C75.868 93.0529 76.1658 92.8128 76.3278 92.4667C76.4872 92.1125 76.4922 91.694 76.3428 91.2111L75.3097 87.8722L76.4145 87.5303L77.4628 90.9184C77.6198 91.4258 77.6514 91.9047 77.5576 92.3552C77.4639 92.8057 77.2629 93.1996 76.9548 93.5371C76.6524 93.8638 76.2516 94.1044 75.7524 94.2589ZM82.8063 92.0763C82.3643 92.2131 81.9355 92.2471 81.5197 92.1785C81.1096 92.0992 80.7475 91.9287 80.4334 91.6672C80.1193 91.4057 79.8855 91.07 79.7318 90.6603L79.1886 88.9048C79.0815 88.4717 79.085 88.0626 79.199 87.6776C79.3187 87.2819 79.5266 86.9396 79.8228 86.6507C80.1247 86.351 80.4925 86.1341 80.9262 85.9999C81.4581 85.8353 81.9787 85.8222 82.4878 85.9606C83.0051 86.0965 83.4574 86.3556 83.8447 86.7379C84.232 87.1202 84.5143 87.5978 84.6915 88.1707C84.8688 88.7436 84.9055 89.2971 84.8018 89.8314C84.6981 90.3656 84.4712 90.8349 84.121 91.2391C83.7765 91.6327 83.3382 91.9118 82.8063 92.0763ZM82.2993 91.0899C82.6676 90.9759 82.9642 90.79 83.1893 90.532C83.4144 90.2741 83.5632 89.9725 83.6357 89.6272C83.7057 89.2738 83.6799 88.9007 83.5584 88.5078C83.4394 88.1232 83.2512 87.8048 82.9938 87.5527C82.7365 87.3005 82.4433 87.1356 82.1144 87.058C81.783 86.9723 81.4373 86.9851 81.0772 87.0965C80.7089 87.2104 80.4122 87.3964 80.1872 87.6543C79.9596 87.9041 79.8149 88.2044 79.753 88.5554C79.6912 88.9063 79.7211 89.2781 79.8427 89.671C79.9617 90.0556 80.1417 90.3765 80.3827 90.6337C80.6293 90.8802 80.9183 91.0464 81.2498 91.1322C81.5894 91.2154 81.9392 91.2013 82.2993 91.0899ZM79.6994 92.9031L76.9875 84.1383L78.0923 83.7965L79.4407 88.1543L79.6688 89.6306L80.318 90.99L80.8042 92.5613L79.6994 92.9031ZM86.8565 90.6887L85.0524 84.8578L86.1572 84.5159L87.9613 90.3469L86.8565 90.6887ZM85.2439 83.5207C85.0393 83.584 84.8513 83.5704 84.6799 83.48C84.5059 83.3814 84.3872 83.2298 84.3239 83.0252C84.2632 82.8288 84.278 82.6448 84.3684 82.4734C84.4563 82.2937 84.6026 82.1723 84.8072 82.109C85.0117 82.0457 85.201 82.0633 85.375 82.1619C85.5465 82.2523 85.6626 82.3958 85.7234 82.5922C85.7867 82.7968 85.7744 82.9889 85.6865 83.1685C85.596 83.34 85.4485 83.4574 85.2439 83.5207Z" fill="#B9B9B9"/>
<path d="M27.779 71.9777L25.1203 63.3848L26.532 62.948L29.1907 71.5409L27.779 71.9777ZM27.6093 67.995L27.2105 66.706L31.5807 65.3539L31.9795 66.6428L27.6093 67.995ZM26.4889 64.3737L26.0901 63.0847L30.6689 61.668L31.0677 62.9569L26.4889 64.3737ZM37.0956 69.2297C36.5063 69.412 35.9339 69.4456 35.3782 69.3306C34.8282 69.2049 34.3418 68.9518 33.9193 68.5714C33.5049 68.1885 33.2078 67.7065 33.028 67.1255C32.8482 66.5444 32.8225 65.983 32.9507 65.4411C33.0765 64.8911 33.3267 64.4101 33.7014 63.9983C34.0844 63.5839 34.5582 63.2893 35.1228 63.1146C35.6712 62.945 36.1932 62.9224 36.6891 63.047C37.1932 63.169 37.6322 63.4143 38.0063 63.7828C38.3885 64.1487 38.667 64.614 38.8417 65.1787C38.8721 65.2769 38.8956 65.3818 38.9121 65.4932C38.9343 65.5939 38.9521 65.7095 38.9656 65.8398L34.129 67.3363L33.7871 66.2315L37.924 64.9515L37.5575 65.5492C37.4297 65.1942 37.2664 64.9129 37.0677 64.7053C36.869 64.4978 36.6348 64.364 36.3651 64.304C36.1037 64.2414 35.8093 64.2608 35.4819 64.3621C35.1382 64.4684 34.8623 64.6345 34.6541 64.8603C34.446 65.0861 34.3142 65.3555 34.2586 65.6686C34.2005 65.9736 34.2284 66.3102 34.3424 66.6784C34.4563 67.0467 34.63 67.3472 34.8634 67.5798C35.0968 67.8125 35.3726 67.9648 35.6908 68.0368C36.0064 68.1005 36.3402 68.0779 36.6921 67.9691C36.9949 67.8754 37.2567 67.7361 37.4774 67.5512C37.7064 67.3638 37.8793 67.1399 37.996 66.8796L39.125 67.4853C38.9423 67.9095 38.673 68.2708 38.317 68.5693C37.961 68.8677 37.5539 69.0879 37.0956 69.2297ZM43.653 67.2008C43.0637 67.3831 42.4913 67.4167 41.9356 67.3017C41.3856 67.176 40.8993 66.9229 40.4767 66.5425C40.0623 66.1596 39.7652 65.6776 39.5854 65.0966C39.4056 64.5155 39.3799 63.9541 39.5081 63.4122C39.6339 62.8622 39.8841 62.3813 40.2589 61.9694C40.6418 61.555 41.1156 61.2604 41.6802 61.0857C42.2286 60.9161 42.7506 60.8935 43.2465 61.0181C43.7506 61.1401 44.1896 61.3854 44.5637 61.7539C44.9459 62.1198 45.2244 62.5852 45.3991 63.1498C45.4295 63.248 45.453 63.3529 45.4695 63.4643C45.4917 63.5651 45.5095 63.6806 45.523 63.811L40.6864 65.3074L40.3445 64.2026L44.4814 62.9226L44.1149 63.5203C43.9871 63.1653 43.8238 62.884 43.6251 62.6765C43.4264 62.4689 43.1922 62.3351 42.9225 62.2751C42.6611 62.2125 42.3667 62.2319 42.0393 62.3332C41.6956 62.4395 41.4197 62.6056 41.2115 62.8314C41.0034 63.0572 40.8716 63.3267 40.816 63.6398C40.7579 63.9447 40.7858 64.2813 40.8998 64.6496C41.0137 65.0178 41.1874 65.3183 41.4208 65.551C41.6542 65.7836 41.93 65.9359 42.2482 66.0079C42.5638 66.0716 42.8976 66.0491 43.2495 65.9402C43.5523 65.8465 43.8141 65.7072 44.0349 65.5223C44.2638 65.3349 44.4367 65.111 44.5534 64.8507L45.6824 65.4564C45.4998 65.8806 45.2304 66.2419 44.8744 66.5404C44.5184 66.8388 44.1113 67.059 43.653 67.2008ZM49.9403 65.2554C49.4084 65.42 48.8837 65.4344 48.3664 65.2985C47.8573 65.1601 47.405 64.901 47.0095 64.5212C46.6197 64.1307 46.3361 63.649 46.1589 63.0762C45.9791 62.4951 45.9411 61.9375 46.0448 61.4032C46.1542 60.8583 46.3799 60.3849 46.7218 59.9832C47.0695 59.5707 47.5093 59.2822 48.0412 59.1176C48.4913 58.9784 48.9186 58.9537 49.3231 59.0438C49.7333 59.1232 50.0925 59.2989 50.401 59.5712C50.7094 59.8434 50.9294 60.1923 51.0611 60.6179L51.5852 62.3119C51.7169 62.7375 51.7323 63.1497 51.6316 63.5485C51.539 63.9448 51.3471 64.2956 51.056 64.6009C50.7623 64.898 50.3904 65.1162 49.9403 65.2554ZM49.7663 63.9104C50.1018 63.8066 50.3695 63.643 50.5695 63.4198C50.7751 63.1858 50.9056 62.9122 50.9612 62.5991C51.0168 62.286 50.9901 61.9535 50.8812 61.6016C50.7723 61.2497 50.6066 60.9603 50.3839 60.7332C50.1612 60.5062 49.9002 60.3583 49.6009 60.2895C49.3073 60.21 48.9927 60.2221 48.6572 60.3259C48.3299 60.4272 48.0634 60.5948 47.8578 60.8288C47.6579 61.0521 47.526 61.3215 47.4623 61.6372C47.4067 61.9503 47.4334 62.2828 47.5422 62.6347C47.6511 62.9866 47.8169 63.2761 48.0396 63.5031C48.2705 63.7276 48.5327 63.8796 48.8263 63.9591C49.1256 64.0279 49.4389 64.0117 49.7663 63.9104ZM53.0572 64.1566L51.7068 64.5744L51.2169 62.9908L51.0057 61.4824L50.3319 60.1306L48.9722 55.7359L50.3225 55.3181L53.0572 64.1566Z" fill="#E4E4E4"/>
<g clip-path="url(#clip4_1_8349)">
<rect x="99.5569" y="314.515" width="137.065" height="113.507" rx="21.4163" transform="rotate(-17.1923 99.5569 314.515)" fill="#F9F9F9"/>
<path opacity="0.7" d="M272.994 313.536L207.523 333.793" stroke="#FFAA4C" stroke-width="103.147" stroke-linecap="round"/>
<path d="M206.275 319.736C204.631 322.316 198.765 324.269 195.246 323.095" stroke="black" stroke-width="2.14163" stroke-linecap="round" stroke-linejoin="round"/>
<circle cx="180.137" cy="315.925" r="2.67704" transform="rotate(-17.1923 180.137 315.925)" fill="black"/>
<circle cx="202.643" cy="308.961" r="2.67704" transform="rotate(-17.1923 202.643 308.961)" fill="black"/>
<circle cx="182.536" cy="314.622" r="7.49572" transform="rotate(-17.1923 182.536 314.622)" stroke="black" stroke-width="2.14163"/>
<circle cx="205.042" cy="307.659" r="7.49572" transform="rotate(-17.1923 205.042 307.659)" stroke="black" stroke-width="2.14163"/>
<path d="M189.855 312.918L198.039 310.386" stroke="black" stroke-width="2.14163" stroke-linecap="round" stroke-linejoin="round"/>
<path d="M121.016 338.564L119.688 338.263C117.382 337.738 115.086 339.183 114.562 341.49L108.893 366.426C108.369 368.733 109.813 371.028 112.12 371.553L136.795 377.162C139.101 377.686 141.396 376.241 141.921 373.935L147.59 348.998C148.114 346.691 146.669 344.396 144.363 343.872L138.054 342.438M121.016 338.564C121.505 333.989 123.688 325.113 128.511 326.209C133.335 327.306 132.514 336.492 131.501 340.948M121.016 338.564L126.259 339.756M131.501 340.948L126.259 339.756M131.501 340.948L138.054 342.438M126.259 339.756C126.787 335.006 129.324 325.787 135.243 326.912C141.163 328.038 139.584 337.731 138.054 342.438" stroke="black" stroke-width="2.14163" stroke-linecap="round" stroke-linejoin="round"/>
</g>
<path d="M126.828 291.293L126.517 290.286L129.095 289.488C129.586 289.336 129.926 289.074 130.116 288.702C130.303 288.321 130.333 287.926 130.206 287.517C130.12 287.239 129.982 287.008 129.791 286.825C129.597 286.634 129.361 286.509 129.083 286.452C128.814 286.392 128.523 286.41 128.212 286.506L125.598 287.315L125.286 286.309L127.729 285.553C128.138 285.426 128.429 285.22 128.6 284.934C128.777 284.637 128.802 284.284 128.676 283.874C128.549 283.465 128.326 283.193 128.007 283.059C127.685 282.917 127.315 282.91 126.897 283.039L124.504 283.78L124.192 282.773L126.611 282.025C127.167 281.853 127.661 281.812 128.093 281.903C128.53 281.983 128.893 282.157 129.183 282.426C129.48 282.693 129.69 283.023 129.812 283.415C129.953 283.874 129.951 284.314 129.803 284.736C129.664 285.156 129.384 285.539 128.961 285.884L128.946 285.486C129.555 285.512 130.073 285.679 130.5 285.987C130.932 286.283 131.232 286.702 131.399 287.242C131.538 287.692 131.553 288.131 131.444 288.56C131.334 288.988 131.105 289.377 130.756 289.728C130.412 290.067 129.942 290.329 129.345 290.514L126.828 291.293ZM126.055 291.532L123.419 283.012L124.573 282.655L127.209 291.175L126.055 291.532ZM135.889 288.623C135.415 288.77 134.952 288.797 134.502 288.703C134.057 288.599 133.669 288.387 133.337 288.068C133.005 287.749 132.761 287.336 132.604 286.829L131.555 283.441L132.66 283.099L133.693 286.438C133.792 286.757 133.931 287.019 134.111 287.223C134.297 287.417 134.515 287.542 134.765 287.599C135.016 287.656 135.285 287.64 135.571 287.552C136.005 287.417 136.303 287.177 136.465 286.831C136.624 286.477 136.629 286.059 136.48 285.576L135.447 282.237L136.551 281.895L137.6 285.283C137.757 285.79 137.788 286.269 137.695 286.72C137.601 287.17 137.4 287.564 137.092 287.902C136.789 288.228 136.389 288.469 135.889 288.623ZM142.943 286.441C142.501 286.578 142.072 286.612 141.657 286.543C141.247 286.464 140.884 286.293 140.57 286.032C140.256 285.77 140.022 285.435 139.869 285.025L139.326 283.269C139.218 282.836 139.222 282.427 139.336 282.042C139.456 281.647 139.664 281.304 139.96 281.015C140.262 280.716 140.629 280.499 141.063 280.365C141.595 280.2 142.116 280.187 142.625 280.325C143.142 280.461 143.594 280.72 143.982 281.103C144.369 281.485 144.651 281.962 144.828 282.535C145.006 283.108 145.043 283.662 144.939 284.196C144.835 284.73 144.608 285.2 144.258 285.604C143.913 285.997 143.475 286.276 142.943 286.441ZM142.436 285.455C142.805 285.341 143.101 285.155 143.326 284.897C143.551 284.639 143.7 284.337 143.773 283.992C143.843 283.638 143.817 283.265 143.695 282.872C143.576 282.488 143.388 282.169 143.131 281.917C142.873 281.665 142.58 281.5 142.251 281.423C141.92 281.337 141.574 281.35 141.214 281.461C140.846 281.575 140.549 281.761 140.324 282.019C140.097 282.269 139.952 282.569 139.89 282.92C139.828 283.271 139.858 283.643 139.98 284.036C140.099 284.42 140.279 284.741 140.52 284.998C140.766 285.245 141.055 285.411 141.387 285.497C141.726 285.58 142.076 285.566 142.436 285.455ZM139.836 287.268L137.124 278.503L138.229 278.161L139.578 282.519L139.806 283.995L140.455 285.355L140.941 286.926L139.836 287.268ZM149.364 284.454C148.889 284.601 148.427 284.628 147.976 284.534C147.531 284.43 147.143 284.218 146.811 283.899C146.479 283.58 146.235 283.167 146.078 282.66L145.03 279.272L146.135 278.93L147.168 282.269C147.266 282.588 147.406 282.85 147.585 283.054C147.771 283.248 147.989 283.373 148.24 283.43C148.491 283.487 148.759 283.471 149.046 283.383C149.479 283.248 149.777 283.008 149.939 282.662C150.099 282.308 150.104 281.89 149.954 281.407L148.921 278.068L150.026 277.726L151.074 281.114C151.231 281.621 151.263 282.1 151.169 282.551C151.075 283.001 150.874 283.395 150.566 283.733C150.264 284.059 149.863 284.3 149.364 284.454Z" fill="#B9B9B9"/>
<rect opacity="0.7" x="67.0225" y="49.9609" width="42.8327" height="10.7082" rx="5.35409" transform="rotate(-17.1923 67.0225 49.9609)" fill="black"/>
<path d="M79.4016 245.808L76.7657 237.289L77.9196 236.932L80.5555 245.451L79.4016 245.808ZM88.0304 243.273C87.5884 243.41 87.1596 243.444 86.7438 243.375C86.3336 243.296 85.9715 243.126 85.6575 242.864C85.3434 242.603 85.1095 242.267 84.9559 241.857L84.4127 240.102C84.3056 239.669 84.3091 239.259 84.4231 238.874C84.5428 238.479 84.7507 238.136 85.0469 237.848C85.3487 237.548 85.7165 237.331 86.1503 237.197C86.6822 237.032 87.2028 237.019 87.7119 237.157C88.2292 237.293 88.6815 237.552 89.0688 237.935C89.4561 238.317 89.7384 238.795 89.9156 239.368C90.0929 239.94 90.1296 240.494 90.0259 241.028C89.9222 241.562 89.6952 242.032 89.3451 242.436C89.0005 242.83 88.5623 243.109 88.0304 243.273ZM87.5234 242.287C87.8916 242.173 88.1883 241.987 88.4134 241.729C88.6385 241.471 88.7873 241.169 88.8598 240.824C88.9298 240.471 88.904 240.098 88.7825 239.705C88.6634 239.32 88.4753 239.002 88.2179 238.75C87.9605 238.497 87.6674 238.332 87.3385 238.255C87.0071 238.169 86.6613 238.182 86.3013 238.293C85.933 238.407 85.6363 238.593 85.4112 238.851C85.1836 239.101 85.0389 239.401 84.9771 239.752C84.9153 240.103 84.9452 240.475 85.0667 240.868C85.1857 241.252 85.3657 241.573 85.6067 241.831C85.8534 242.077 86.1424 242.243 86.4738 242.329C86.8134 242.412 87.1633 242.398 87.5234 242.287ZM84.9235 244.1L82.2116 235.335L83.3164 234.993L84.6647 239.351L84.8928 240.827L85.5421 242.187L86.0283 243.758L84.9235 244.1ZM94.7701 241.188C94.1972 241.365 93.6399 241.39 93.098 241.261C92.5562 241.133 92.0793 240.882 91.6674 240.507C91.253 240.124 90.9572 239.646 90.78 239.073C90.6053 238.509 90.5833 237.959 90.7141 237.426C90.8424 236.884 91.0939 236.407 91.4686 235.995C91.8433 235.583 92.3171 235.289 92.89 235.111C93.4547 234.937 94.0079 234.914 94.5498 235.042C95.0973 235.159 95.577 235.405 95.9888 235.78C96.4007 236.155 96.694 236.625 96.8687 237.189C97.0459 237.762 97.0717 238.324 96.946 238.874C96.8177 239.416 96.5621 239.894 96.1792 240.308C95.8045 240.72 95.3348 241.013 94.7701 241.188ZM94.4396 240.12C94.8079 240.006 95.1087 239.819 95.3419 239.558C95.5752 239.298 95.7281 238.995 95.8006 238.65C95.8706 238.296 95.8461 237.927 95.7271 237.543C95.6106 237.166 95.4208 236.857 95.1578 236.616C94.903 236.372 94.607 236.212 94.27 236.137C93.9386 236.051 93.5887 236.065 93.2204 236.179C92.8522 236.293 92.5514 236.481 92.3181 236.741C92.0824 236.993 91.9282 237.292 91.8557 237.637C91.7832 237.983 91.8051 238.344 91.9216 238.72C92.0406 239.105 92.2288 239.423 92.4862 239.675C92.741 239.919 93.0382 240.083 93.3778 240.166C93.7174 240.249 94.0714 240.234 94.4396 240.12ZM101.404 239.135C100.929 239.282 100.467 239.309 100.016 239.215C99.5714 239.111 99.1831 238.899 98.8513 238.58C98.5195 238.261 98.2751 237.848 98.1181 237.341L97.0699 233.953L98.1747 233.611L99.2078 236.95C99.3065 237.269 99.4458 237.531 99.6256 237.735C99.8111 237.929 100.029 238.054 100.28 238.111C100.531 238.168 100.799 238.152 101.086 238.064C101.519 237.929 101.817 237.689 101.979 237.343C102.139 236.989 102.144 236.571 101.994 236.088L100.961 232.749L102.066 232.407L103.114 235.795C103.271 236.302 103.303 236.781 103.209 237.232C103.115 237.682 102.914 238.076 102.606 238.414C102.304 238.74 101.903 238.981 101.404 239.135ZM108.563 239.597C107.966 239.782 107.399 239.836 106.865 239.759C106.338 239.68 105.873 239.483 105.471 239.168L105.959 238.224C106.29 238.453 106.643 238.595 107.019 238.649C107.397 238.711 107.811 238.673 108.261 238.534C108.858 238.349 109.28 238.044 109.525 237.618C109.78 237.198 109.826 236.722 109.661 236.19L109.213 234.742L109.003 233.368L108.404 232.127L107.929 230.593L109.034 230.251L110.766 235.849C110.938 236.405 110.958 236.933 110.825 237.431C110.701 237.927 110.442 238.366 110.049 238.747C109.664 239.126 109.169 239.41 108.563 239.597ZM107.739 236.933C107.207 237.098 106.689 237.119 106.185 236.997C105.689 236.872 105.25 236.627 104.868 236.261C104.483 235.887 104.204 235.422 104.032 234.865C103.86 234.309 103.83 233.776 103.941 233.266C104.05 232.748 104.274 232.298 104.612 231.915C104.957 231.521 105.395 231.242 105.927 231.078C106.385 230.936 106.818 230.901 107.226 230.972C107.634 231.043 107.99 231.211 108.296 231.475C108.608 231.728 108.839 232.069 108.989 232.498L109.468 234.044C109.575 234.477 109.573 234.891 109.461 235.284C109.356 235.666 109.154 236.002 108.858 236.291C108.562 236.58 108.189 236.794 107.739 236.933ZM107.637 235.821C107.997 235.71 108.288 235.535 108.51 235.296C108.74 235.054 108.886 234.771 108.947 234.448C109.006 234.116 108.977 233.761 108.86 233.385C108.744 233.008 108.565 232.705 108.323 232.475C108.087 232.234 107.81 232.078 107.492 232.006C107.171 231.926 106.827 231.943 106.459 232.057C106.09 232.171 105.792 232.352 105.565 232.602C105.335 232.844 105.182 233.133 105.107 233.47C105.038 233.796 105.06 234.144 105.174 234.512C105.288 234.88 105.467 235.184 105.711 235.422C105.963 235.658 106.254 235.814 106.583 235.892C106.917 235.959 107.269 235.935 107.637 235.821ZM116.584 234.304L115.532 230.904C115.396 230.462 115.144 230.141 114.777 229.94C114.41 229.74 114.006 229.708 113.564 229.845C113.269 229.936 113.027 230.082 112.839 230.284C112.65 230.486 112.526 230.722 112.466 230.992C112.406 231.261 112.421 231.543 112.512 231.838L111.979 231.721C111.842 231.279 111.818 230.856 111.909 230.451C111.999 230.047 112.189 229.692 112.48 229.386C112.769 229.073 113.134 228.848 113.576 228.711C114.018 228.574 114.437 228.552 114.833 228.645C115.238 228.735 115.593 228.926 115.898 229.217C116.203 229.508 116.427 229.883 116.569 230.341L117.689 233.962L116.584 234.304ZM112.46 235.58L109.748 226.815L110.853 226.473L113.565 235.238L112.46 235.58ZM120.009 233.244L117.449 224.971L118.554 224.629L121.114 232.902L120.009 233.244ZM117.08 228.864L116.769 227.858L120.746 226.627L121.058 227.634L117.08 228.864ZM126.186 231.333L124.382 225.502L125.487 225.16L127.291 230.991L126.186 231.333ZM130.126 230.114L129.036 226.591C128.902 226.157 128.662 225.859 128.316 225.697C127.976 225.525 127.605 225.5 127.204 225.624C126.934 225.708 126.71 225.84 126.533 226.02C126.356 226.201 126.233 226.414 126.165 226.659C126.098 226.904 126.108 227.17 126.197 227.456L125.674 227.376C125.538 226.934 125.513 226.52 125.6 226.134C125.695 225.746 125.882 225.41 126.162 225.126C126.439 224.834 126.787 224.624 127.204 224.495C127.613 224.368 128.009 224.344 128.392 224.423C128.784 224.499 129.124 224.672 129.414 224.941C129.711 225.207 129.93 225.566 130.069 226.016L131.231 229.772L130.126 230.114ZM134.067 228.895L132.977 225.372C132.843 224.938 132.603 224.64 132.257 224.478C131.916 224.305 131.55 224.28 131.157 224.401C130.887 224.485 130.659 224.618 130.473 224.801C130.296 224.982 130.174 225.194 130.106 225.439C130.038 225.685 130.049 225.95 130.137 226.237L129.443 226.21C129.328 225.752 129.328 225.33 129.442 224.945C129.562 224.55 129.765 224.209 130.053 223.922C130.339 223.628 130.686 223.417 131.095 223.291C131.521 223.159 131.929 223.131 132.321 223.207C132.712 223.284 133.056 223.455 133.354 223.722C133.66 223.986 133.884 224.347 134.026 224.805L135.184 228.549L134.067 228.895ZM138.618 227.541L134.27 222.443L135.497 222.063L138.8 226.085L138.407 226.207L138.959 220.992L140.186 220.612L139.28 227.336L138.618 227.541ZM137.689 230.451L138.317 226.396L139.28 227.336L138.916 230.071L137.689 230.451ZM144.669 225.749C144.342 225.85 144.018 225.906 143.698 225.915C143.384 225.914 143.08 225.873 142.786 225.794C142.49 225.706 142.218 225.579 141.969 225.414L142.461 224.482C142.755 224.678 143.061 224.798 143.38 224.843C143.696 224.88 144.026 224.845 144.37 224.739C144.713 224.632 144.962 224.493 145.114 224.32C145.265 224.139 145.307 223.942 145.241 223.729C145.175 223.516 145.047 223.377 144.856 223.31C144.671 223.233 144.448 223.194 144.188 223.194C143.925 223.186 143.647 223.187 143.355 223.197C143.067 223.196 142.786 223.171 142.511 223.121C142.235 223.072 141.987 222.965 141.766 222.8C141.553 222.633 141.392 222.374 141.283 222.022C141.174 221.67 141.166 221.34 141.26 221.034C141.35 220.718 141.526 220.445 141.785 220.212C142.053 219.976 142.404 219.792 142.838 219.657C143.296 219.516 143.727 219.472 144.129 219.527C144.537 219.571 144.905 219.717 145.233 219.965L144.742 220.898C144.512 220.736 144.257 220.635 143.976 220.597C143.703 220.555 143.415 220.582 143.113 220.675C142.793 220.774 142.566 220.907 142.429 221.075C142.298 221.232 142.263 221.409 142.324 221.605C142.385 221.802 142.505 221.93 142.686 221.991C142.866 222.052 143.086 222.082 143.346 222.083C143.614 222.08 143.892 222.08 144.179 222.08C144.464 222.073 144.745 222.098 145.023 222.156C145.301 222.213 145.548 222.33 145.763 222.505C145.987 222.678 146.155 222.944 146.266 223.304C146.436 223.853 146.374 224.347 146.08 224.788C145.794 225.226 145.324 225.546 144.669 225.749ZM150.755 223.866C150.174 224.046 149.609 224.077 149.062 223.959C148.512 223.834 148.031 223.583 147.619 223.209C147.207 222.834 146.911 222.356 146.732 221.775C146.554 221.202 146.526 220.646 146.646 220.107C146.774 219.565 147.023 219.093 147.392 218.692C147.767 218.28 148.236 217.987 148.801 217.812C149.341 217.645 149.854 217.621 150.339 217.74C150.832 217.856 151.261 218.096 151.624 218.459C151.995 218.819 152.266 219.274 152.436 219.822C152.461 219.904 152.485 219.995 152.507 220.096C152.527 220.188 152.543 220.3 152.557 220.43L147.634 221.953L147.349 221.032L151.682 219.692L151.388 220.173C151.266 219.78 151.094 219.47 150.871 219.243C150.646 219.008 150.384 218.856 150.084 218.787C149.783 218.71 149.452 218.727 149.092 218.839C148.715 218.955 148.409 219.14 148.173 219.392C147.937 219.644 147.787 219.942 147.723 220.285C147.659 220.627 147.689 220.999 147.813 221.4C147.939 221.809 148.133 222.144 148.392 222.404C148.65 222.657 148.956 222.822 149.312 222.9C149.666 222.97 150.039 222.944 150.432 222.823C150.759 222.721 151.04 222.572 151.275 222.374C151.518 222.173 151.702 221.928 151.827 221.638L152.763 222.142C152.586 222.555 152.32 222.911 151.964 223.209C151.616 223.505 151.213 223.724 150.755 223.866ZM154.597 222.543L151.886 213.778L152.99 213.436L155.702 222.201L154.597 222.543ZM158.153 221.442L156.08 214.74C155.945 214.306 155.923 213.901 156.013 213.523C156.099 213.138 156.278 212.8 156.547 212.51C156.824 212.218 157.184 212.004 157.625 211.867C157.961 211.764 158.269 211.731 158.55 211.77C158.831 211.808 159.108 211.906 159.381 212.064L158.877 213C158.735 212.918 158.59 212.869 158.441 212.852C158.29 212.827 158.12 212.844 157.932 212.902C157.58 213.011 157.338 213.198 157.205 213.464C157.08 213.726 157.073 214.038 157.184 214.398L159.258 221.101L158.153 221.442ZM155.224 217.062L154.913 216.056L159.308 214.696L159.619 215.703L155.224 217.062ZM86.4521 260.51C85.9202 260.674 85.3968 260.693 84.8821 260.565C84.3648 260.429 83.9084 260.172 83.5129 259.792C83.1256 259.409 82.8433 258.932 82.666 258.359C82.4888 257.786 82.452 257.233 82.5557 256.698C82.6676 256.161 82.8946 255.692 83.2366 255.29C83.5868 254.886 84.0319 254.601 84.5721 254.433C85.014 254.297 85.4359 254.269 85.8379 254.351C86.2455 254.422 86.6063 254.589 86.9204 254.85C87.2319 255.103 87.4658 255.439 87.622 255.857L88.1651 257.612C88.2697 258.037 88.2663 258.447 88.1548 258.84C88.0515 259.23 87.853 259.574 87.5593 259.871C87.2713 260.158 86.9022 260.371 86.4521 260.51ZM86.3134 259.409C86.8617 259.24 87.2467 258.919 87.4683 258.447C87.6873 257.967 87.707 257.436 87.5272 256.855C87.4031 256.454 87.2178 256.13 86.9711 255.884C86.7301 255.626 86.4452 255.459 86.1163 255.381C85.7849 255.296 85.435 255.31 85.0668 255.424C84.6985 255.538 84.3977 255.725 84.1645 255.985C83.9394 256.243 83.7919 256.549 83.7219 256.902C83.6575 257.245 83.6849 257.609 83.8039 257.993C83.9254 258.386 84.1108 258.71 84.36 258.965C84.6148 259.209 84.912 259.372 85.2516 259.456C85.5912 259.539 85.9452 259.523 86.3134 259.409ZM88.3537 259.787L87.8675 258.216L87.6356 256.727L86.9902 255.38L86.5496 253.956L87.6667 253.61L89.4708 259.441L88.3537 259.787ZM95.2039 257.668L94.1518 254.267C94.0151 253.825 93.7633 253.504 93.3964 253.304C93.0295 253.103 92.6251 253.072 92.1832 253.208C91.8886 253.3 91.647 253.446 91.4584 253.648C91.2697 253.85 91.1454 254.085 91.0853 254.355C91.0253 254.625 91.0409 254.907 91.132 255.201L90.5981 255.084C90.4613 254.642 90.438 254.219 90.528 253.815C90.6181 253.41 90.8087 253.055 91.0998 252.75C91.3884 252.436 91.7537 252.211 92.1956 252.075C92.6375 251.938 93.0605 251.928 93.4644 252.045C93.8764 252.16 94.2364 252.367 94.5442 252.666C94.8495 252.957 95.0642 253.303 95.1883 253.704L96.3087 257.326L95.2039 257.668ZM91.0793 258.944L89.2752 253.113L90.38 252.771L92.1841 258.602L91.0793 258.944ZM103.097 255.36C102.516 255.54 101.951 255.571 101.404 255.453C100.854 255.328 100.373 255.077 99.9609 254.703C99.5491 254.328 99.2532 253.85 99.0735 253.269C98.8962 252.696 98.8676 252.14 98.9877 251.601C99.116 251.059 99.3647 250.587 99.7337 250.186C100.108 249.774 100.578 249.481 101.143 249.306C101.683 249.139 102.196 249.115 102.681 249.234C103.174 249.35 103.602 249.59 103.966 249.953C104.337 250.313 104.608 250.767 104.778 251.316C104.803 251.398 104.827 251.489 104.849 251.59C104.869 251.682 104.885 251.794 104.898 251.924L99.976 253.447L99.6911 252.526L104.024 251.186L103.729 251.667C103.608 251.274 103.436 250.964 103.213 250.737C102.988 250.502 102.726 250.35 102.426 250.281C102.125 250.204 101.794 250.221 101.434 250.333C101.057 250.449 100.751 250.634 100.515 250.886C100.279 251.138 100.129 251.436 100.065 251.779C100.001 252.121 100.031 252.493 100.155 252.894C100.281 253.303 100.474 253.638 100.734 253.898C100.992 254.151 101.298 254.316 101.654 254.394C102.008 254.464 102.381 254.438 102.774 254.317C103.101 254.215 103.382 254.066 103.617 253.867C103.859 253.667 104.044 253.421 104.169 253.132L105.105 253.636C104.928 254.049 104.662 254.405 104.306 254.703C103.958 254.999 103.555 255.218 103.097 255.36ZM106.939 254.037L104.227 245.272L105.332 244.93L108.044 253.695L106.939 254.037ZM112.399 252.482C111.818 252.662 111.254 252.693 110.706 252.575C110.156 252.449 109.675 252.199 109.264 251.824C108.852 251.45 108.556 250.972 108.376 250.391C108.199 249.818 108.17 249.262 108.29 248.722C108.419 248.181 108.667 247.709 109.036 247.308C109.411 246.896 109.881 246.603 110.445 246.428C110.986 246.261 111.498 246.237 111.983 246.356C112.477 246.472 112.905 246.712 113.268 247.075C113.64 247.435 113.911 247.889 114.08 248.438C114.106 248.519 114.129 248.611 114.151 248.711C114.171 248.804 114.188 248.915 114.201 249.046L109.279 250.569L108.994 249.648L113.327 248.307L113.032 248.789C112.911 248.396 112.738 248.086 112.516 247.859C112.291 247.624 112.028 247.472 111.729 247.403C111.427 247.326 111.096 247.343 110.736 247.455C110.36 247.571 110.054 247.755 109.818 248.008C109.582 248.26 109.432 248.558 109.368 248.9C109.303 249.243 109.333 249.615 109.457 250.016C109.584 250.425 109.777 250.76 110.037 251.02C110.294 251.272 110.601 251.437 110.957 251.516C111.31 251.586 111.684 251.56 112.076 251.438C112.404 251.337 112.685 251.187 112.919 250.989C113.162 250.789 113.346 250.543 113.472 250.253L114.408 250.757C114.231 251.171 113.964 251.527 113.608 251.825C113.261 252.121 112.858 252.34 112.399 252.482ZM118.944 250.457C118.371 250.634 117.809 250.66 117.259 250.534C116.718 250.406 116.241 250.154 115.829 249.78C115.423 249.394 115.132 248.919 114.957 248.354C114.78 247.782 114.752 247.225 114.872 246.686C115 246.144 115.253 245.672 115.63 245.268C116.013 244.853 116.491 244.558 117.064 244.38C117.514 244.241 117.958 244.198 118.396 244.251C118.831 244.295 119.237 244.434 119.614 244.667L119.105 245.632C118.859 245.475 118.589 245.384 118.294 245.358C118.005 245.322 117.705 245.352 117.394 245.448C117.026 245.562 116.725 245.75 116.492 246.01C116.256 246.262 116.102 246.561 116.029 246.906C115.957 247.252 115.98 247.617 116.099 248.001C116.218 248.386 116.405 248.7 116.66 248.944C116.915 249.188 117.212 249.352 117.552 249.435C117.891 249.518 118.245 249.503 118.613 249.389C118.924 249.293 119.19 249.152 119.411 248.967C119.637 248.772 119.812 248.538 119.934 248.267L120.886 248.78C120.713 249.174 120.456 249.518 120.116 249.812C119.785 250.102 119.394 250.318 118.944 250.457ZM123.072 249.045L120.512 240.771L121.617 240.429L124.177 248.703L123.072 249.045ZM120.143 244.665L119.832 243.658L123.809 242.428L124.121 243.434L120.143 244.665ZM126.695 247.924L124.891 242.093L125.996 241.751L127.8 247.582L126.695 247.924ZM126.771 244.255L126.297 244.2C126.066 243.456 126.055 242.809 126.261 242.261C126.468 241.713 126.895 241.338 127.542 241.138C127.836 241.047 128.119 241.018 128.389 241.051C128.657 241.076 128.93 241.175 129.208 241.349L128.715 242.322C128.552 242.229 128.388 242.177 128.223 242.165C128.058 242.154 127.877 242.178 127.68 242.239C127.271 242.365 126.976 242.6 126.795 242.943C126.615 243.286 126.606 243.723 126.771 244.255ZM131.635 246.396L129.831 240.565L130.935 240.223L132.74 246.054L131.635 246.396ZM130.022 239.228C129.818 239.291 129.63 239.277 129.458 239.187C129.284 239.088 129.166 238.937 129.102 238.732C129.041 238.536 129.056 238.352 129.147 238.18C129.235 238.001 129.381 237.879 129.585 237.816C129.79 237.753 129.979 237.77 130.153 237.869C130.325 237.959 130.441 238.103 130.502 238.299C130.565 238.504 130.553 238.696 130.465 238.875C130.374 239.047 130.227 239.164 130.022 239.228ZM137.07 244.849C136.497 245.026 135.935 245.052 135.385 244.926C134.843 244.798 134.367 244.546 133.955 244.171C133.548 243.786 133.258 243.311 133.083 242.746C132.906 242.173 132.877 241.617 132.998 241.078C133.126 240.536 133.379 240.063 133.756 239.66C134.139 239.245 134.617 238.949 135.189 238.772C135.64 238.633 136.084 238.59 136.521 238.643C136.957 238.687 137.363 238.826 137.74 239.059L137.231 240.024C136.985 239.867 136.715 239.775 136.42 239.75C136.131 239.714 135.831 239.744 135.52 239.84C135.152 239.954 134.851 240.141 134.618 240.402C134.382 240.654 134.228 240.953 134.155 241.298C134.083 241.643 134.106 242.008 134.225 242.393C134.344 242.778 134.531 243.092 134.786 243.336C135.04 243.58 135.338 243.743 135.677 243.827C136.017 243.91 136.371 243.895 136.739 243.781C137.05 243.684 137.316 243.544 137.537 243.359C137.763 243.163 137.938 242.93 138.06 242.659L139.012 243.172C138.838 243.566 138.582 243.91 138.242 244.203C137.91 244.494 137.52 244.709 137.07 244.849ZM144.819 242.451C144.491 242.552 144.168 242.608 143.848 242.617C143.534 242.616 143.23 242.575 142.936 242.496C142.64 242.408 142.368 242.281 142.119 242.116L142.611 241.184C142.905 241.38 143.211 241.5 143.53 241.545C143.846 241.582 144.176 241.547 144.52 241.441C144.863 241.334 145.112 241.195 145.264 241.022C145.415 240.841 145.457 240.644 145.391 240.431C145.325 240.218 145.197 240.079 145.006 240.012C144.82 239.935 144.598 239.896 144.338 239.896C144.075 239.888 143.797 239.889 143.504 239.898C143.217 239.898 142.936 239.873 142.661 239.823C142.385 239.774 142.137 239.667 141.916 239.502C141.703 239.335 141.542 239.076 141.433 238.724C141.324 238.372 141.316 238.042 141.409 237.735C141.5 237.42 141.676 237.146 141.935 236.914C142.203 236.678 142.554 236.494 142.988 236.359C143.446 236.218 143.876 236.174 144.279 236.229C144.687 236.273 145.055 236.419 145.383 236.667L144.891 237.6C144.662 237.438 144.407 237.337 144.126 237.299C143.853 237.257 143.565 237.284 143.262 237.377C142.943 237.476 142.715 237.609 142.579 237.777C142.448 237.934 142.413 238.111 142.474 238.307C142.535 238.504 142.655 238.632 142.836 238.693C143.016 238.754 143.236 238.784 143.496 238.785C143.764 238.782 144.042 238.782 144.329 238.782C144.614 238.775 144.895 238.8 145.173 238.858C145.451 238.915 145.698 239.032 145.913 239.207C146.137 239.38 146.305 239.646 146.416 240.006C146.586 240.555 146.524 241.049 146.23 241.49C145.944 241.928 145.473 242.248 144.819 242.451ZM150.868 240.579C150.295 240.757 149.733 240.782 149.183 240.657C148.641 240.528 148.165 240.277 147.753 239.902C147.347 239.517 147.056 239.042 146.881 238.477C146.704 237.904 146.676 237.348 146.796 236.809C146.924 236.267 147.177 235.794 147.554 235.39C147.937 234.976 148.415 234.68 148.988 234.503C149.438 234.364 149.882 234.321 150.319 234.373C150.755 234.418 151.161 234.557 151.538 234.79L151.029 235.754C150.783 235.597 150.513 235.506 150.218 235.481C149.929 235.445 149.629 235.475 149.318 235.571C148.95 235.685 148.649 235.872 148.416 236.133C148.18 236.385 148.026 236.684 147.953 237.029C147.881 237.374 147.904 237.739 148.023 238.124C148.142 238.508 148.329 238.823 148.584 239.067C148.839 239.311 149.136 239.474 149.475 239.558C149.815 239.641 150.169 239.625 150.537 239.511C150.848 239.415 151.114 239.275 151.335 239.09C151.561 238.894 151.736 238.661 151.858 238.39L152.81 238.902C152.636 239.297 152.38 239.641 152.04 239.934C151.709 240.225 151.318 240.44 150.868 240.579ZM156.754 238.758C156.181 238.936 155.624 238.96 155.082 238.832C154.54 238.703 154.063 238.452 153.651 238.077C153.237 237.694 152.941 237.216 152.764 236.644C152.589 236.079 152.567 235.53 152.698 234.996C152.826 234.454 153.078 233.977 153.452 233.565C153.827 233.154 154.301 232.859 154.874 232.682C155.438 232.507 155.992 232.484 156.533 232.612C157.081 232.73 157.561 232.976 157.973 233.351C158.384 233.725 158.678 234.195 158.852 234.76C159.03 235.333 159.055 235.894 158.93 236.444C158.801 236.986 158.546 237.464 158.163 237.878C157.788 238.29 157.318 238.584 156.754 238.758ZM156.423 237.69C156.792 237.576 157.092 237.389 157.326 237.129C157.559 236.868 157.712 236.565 157.784 236.22C157.854 235.867 157.83 235.498 157.711 235.113C157.594 234.736 157.405 234.428 157.142 234.186C156.887 233.942 156.591 233.783 156.254 233.708C155.922 233.622 155.572 233.636 155.204 233.75C154.836 233.864 154.535 234.051 154.302 234.311C154.066 234.564 153.912 234.863 153.839 235.208C153.767 235.553 153.789 235.914 153.905 236.29C154.024 236.675 154.212 236.993 154.47 237.246C154.725 237.49 155.022 237.653 155.362 237.736C155.701 237.82 156.055 237.804 156.423 237.69ZM163.707 236.607C163.134 236.784 162.577 236.809 162.035 236.68C161.493 236.552 161.016 236.301 160.604 235.926C160.19 235.543 159.894 235.065 159.717 234.492C159.542 233.928 159.52 233.378 159.651 232.845C159.779 232.303 160.031 231.826 160.405 231.414C160.78 231.002 161.254 230.708 161.827 230.531C162.391 230.356 162.945 230.333 163.486 230.461C164.034 230.578 164.514 230.825 164.926 231.199C165.337 231.574 165.631 232.044 165.805 232.608C165.983 233.181 166.008 233.743 165.883 234.293C165.754 234.835 165.499 235.313 165.116 235.727C164.741 236.139 164.271 236.432 163.707 236.607ZM163.376 235.539C163.745 235.425 164.045 235.238 164.279 234.977C164.512 234.717 164.665 234.414 164.737 234.069C164.807 233.715 164.783 233.346 164.664 232.962C164.547 232.585 164.358 232.276 164.095 232.035C163.84 231.791 163.544 231.631 163.207 231.556C162.875 231.47 162.525 231.485 162.157 231.599C161.789 231.712 161.488 231.9 161.255 232.16C161.019 232.412 160.865 232.711 160.792 233.056C160.72 233.402 160.742 233.763 160.858 234.139C160.977 234.524 161.166 234.842 161.423 235.094C161.678 235.338 161.975 235.502 162.315 235.585C162.654 235.668 163.008 235.653 163.376 235.539ZM168.674 234.936L166.114 226.662L167.219 226.32L169.779 234.594L168.674 234.936ZM165.745 230.556L165.434 229.549L169.411 228.318L169.723 229.325L165.745 230.556ZM174.856 233.157C174.275 233.337 173.711 233.368 173.164 233.251C172.614 233.125 172.133 232.875 171.721 232.5C171.309 232.125 171.013 231.647 170.833 231.066C170.656 230.493 170.627 229.937 170.748 229.398C170.876 228.856 171.124 228.385 171.494 227.983C171.868 227.572 172.338 227.278 172.903 227.104C173.443 226.936 173.955 226.912 174.441 227.031C174.934 227.148 175.362 227.387 175.726 227.75C176.097 228.11 176.368 228.565 176.537 229.113C176.563 229.195 176.586 229.286 176.609 229.387C176.628 229.479 176.645 229.591 176.658 229.721L171.736 231.244L171.451 230.324L175.784 228.983L175.489 229.464C175.368 229.071 175.196 228.761 174.973 228.534C174.748 228.299 174.486 228.147 174.186 228.078C173.884 228.001 173.553 228.019 173.193 228.13C172.817 228.247 172.511 228.431 172.275 228.683C172.039 228.936 171.889 229.233 171.825 229.576C171.76 229.918 171.79 230.29 171.914 230.691C172.041 231.101 172.234 231.435 172.494 231.696C172.752 231.948 173.058 232.113 173.414 232.191C173.768 232.261 174.141 232.235 174.534 232.114C174.861 232.013 175.142 231.863 175.377 231.665C175.619 231.464 175.803 231.219 175.929 230.929L176.865 231.433C176.688 231.846 176.422 232.202 176.066 232.501C175.718 232.797 175.315 233.015 174.856 233.157ZM178.699 231.834L176.895 226.003L178 225.661L179.804 231.492L178.699 231.834ZM178.775 228.165L178.3 228.11C178.07 227.366 178.058 226.719 178.265 226.171C178.472 225.622 178.899 225.248 179.545 225.048C179.84 224.957 180.122 224.928 180.393 224.961C180.66 224.986 180.933 225.085 181.211 225.259L180.719 226.232C180.556 226.139 180.391 226.087 180.226 226.075C180.061 226.063 179.881 226.088 179.684 226.149C179.275 226.275 178.98 226.51 178.799 226.853C178.618 227.196 178.61 227.633 178.775 228.165Z" fill="#B9B9B9"/>
<path d="M145.085 26.929L147.617 35.1128" stroke="#E4E4E4" stroke-width="1.60623" stroke-linecap="round" stroke-linejoin="round"/>
<path d="M142.259 32.287L150.443 29.7549" stroke="#E4E4E4" stroke-width="1.60623" stroke-linecap="round" stroke-linejoin="round"/>
</g>
<defs>
<clipPath id="clip0_1_8349">
<rect x="7.66748" y="53.7539" width="158.481" height="328.741" rx="26.7704" transform="rotate(-17.1923 7.66748 53.7539)" fill="white"/>
</clipPath>
<clipPath id="clip1_1_8349">
<rect x="39.4199" y="120.151" width="137.065" height="113.507" rx="21.4163" transform="rotate(-17.1923 39.4199 120.151)" fill="white"/>
</clipPath>
<clipPath id="clip2_1_8349">
<rect x="30.2412" y="90.4847" width="25.6996" height="25.6996" rx="12.8498" transform="rotate(-17.1923 30.2412 90.4847)" fill="white"/>
</clipPath>
<clipPath id="clip3_1_8349">
<rect x="90.3782" y="284.849" width="25.6996" height="25.6996" rx="12.8498" transform="rotate(-17.1923 90.3782 284.849)" fill="white"/>
</clipPath>
<clipPath id="clip4_1_8349">
<rect x="99.5569" y="314.515" width="137.065" height="113.507" rx="21.4163" transform="rotate(-17.1923 99.5569 314.515)" fill="white"/>
</clipPath>
</defs>
</svg>
